<?xml version="1.0" standalone="no"?>
<!DOCTYPE svg PUBLIC "-//W3C//DTD SVG 20010904//EN"
 "http://www.w3.org/TR/2001/REC-SVG-20010904/DTD/svg10.dtd">
<svg version="1.0" xmlns="http://www.w3.org/2000/svg"
 width="233.000000pt" height="122.000000pt" viewBox="0 0 233.000000 122.000000"
 preserveAspectRatio="xMidYMid meet">

<g transform="translate(0.000000,122.000000) scale(0.100000,-0.100000)"
fill="#000000" stroke="none">
<path d="M1033 990 c-11 -5 -29 -22 -39 -38 -16 -29 -19 -29 -40 -15 -37 24
-132 28 -198 9 -75 -22 -159 -100 -176 -164 l-11 -43 -29 21 c-33 24 -95 26
-145 6 -19 -8 -54 -40 -80 -73 -44 -56 -46 -60 -43 -114 4 -53 3 -57 -23 -66
-16 -6 -37 -26 -48 -44 -40 -66 -19 -150 49 -195 l41 -27 337 3 c480 6 619 6
953 0 l297 -5 43 31 c84 61 113 174 70 271 -21 46 -78 83 -128 83 l-28 0 0 76
0 75 -41 39 c-48 44 -109 59 -174 42 -35 -8 -40 -8 -40 7 0 27 -37 79 -69 96
-61 31 -139 9 -177 -52 -10 -15 -19 -30 -20 -32 -2 -1 -13 4 -26 13 -25 18
-70 21 -98 6 -15 -8 -19 -5 -24 26 -13 64 -67 91 -133 64z m96 -26 c27 -34 27
-88 0 -125 -11 -16 -15 -29 -9 -29 6 0 20 15 30 33 34 57 83 70 138 37 39 -24
42 -24 42 -5 0 26 60 84 94 90 42 8 99 -15 121 -48 9 -14 17 -42 18 -61 2 -41
3 -42 24 -20 13 13 32 15 89 12 61 -3 77 -7 100 -28 31 -29 54 -78 54 -115 0
-31 -34 -101 -52 -108 -7 -2 -10 -8 -5 -12 4 -5 17 1 30 13 29 28 66 28 118 1
114 -58 99 -258 -23 -320 -41 -21 -55 -22 -282 -20 -131 1 -242 3 -246 6 -11
7 -169 7 -632 0 l-447 -7 -40 29 c-42 29 -61 65 -61 115 0 65 60 125 101 100
22 -14 24 -6 4 28 -27 47 -19 93 25 149 49 62 73 78 126 87 51 8 97 -14 119
-56 20 -39 27 -38 20 4 -13 69 46 158 139 207 33 18 53 20 126 17 93 -3 130
-20 130 -59 0 -10 5 -21 11 -24 7 -5 8 4 4 28 -9 44 7 75 48 92 46 20 63 18
86 -11z"/>
<path d="M1335 820 c-3 -5 -1 -10 4 -10 6 0 11 5 11 10 0 6 -2 10 -4 10 -3 0
-8 -4 -11 -10z"/>
<path d="M705 630 c-3 -5 -2 -10 4 -10 5 0 13 5 16 10 3 6 2 10 -4 10 -5 0
-13 -4 -16 -10z"/>
<path d="M510 310 c-19 -17 -30 -30 -24 -30 6 0 23 14 39 30 36 38 30 38 -15
0z"/>
<path d="M1109 313 l-24 -26 27 19 c15 10 28 22 28 27 0 12 -5 8 -31 -20z"/>
<path d="M1264 318 l-19 -23 23 19 c12 11 22 21 22 23 0 8 -8 2 -26 -19z"/>
<path d="M1394 318 l-19 -23 23 19 c21 18 27 26 19 26 -2 0 -12 -10 -23 -22z"/>
<path d="M1795 310 c-16 -16 -24 -30 -18 -30 10 0 34 24 47 48 12 20 2 14 -29
-18z"/>
<path d="M1895 320 c-16 -17 -16 -20 -3 -15 9 4 19 13 22 21 7 19 2 18 -19 -6z"/>
<path d="M349 303 l-24 -27 33 23 c32 23 39 31 24 31 -5 0 -19 -12 -33 -27z"/>
<path d="M662 308 c-18 -11 -31 -22 -29 -25 6 -5 67 30 67 40 0 9 2 9 -38 -15z"/>
<path d="M850 305 c-13 -14 -19 -25 -13 -25 5 0 20 11 33 25 13 14 19 25 13
25 -5 0 -20 -11 -33 -25z"/>
<path d="M1580 305 c-13 -14 -19 -25 -14 -25 8 1 50 50 41 50 -2 0 -14 -11
-27 -25z"/>
<path d="M267 314 c-3 -5 1 -14 8 -21 11 -10 18 -8 37 7 13 11 18 19 13 20 -6
0 -17 -6 -23 -12 -10 -10 -15 -10 -21 1 -5 7 -11 9 -14 5z"/>
<path d="M1435 300 c-3 -5 -2 -10 4 -10 5 0 13 5 16 10 3 6 2 10 -4 10 -5 0
-13 -4 -16 -10z"/>
<path d="M1835 300 c-3 -5 -1 -10 4 -10 6 0 11 5 11 10 0 6 -2 10 -4 10 -3 0
-8 -4 -11 -10z"/>
<path d="M537 293 c-4 -3 -7 -11 -7 -17 0 -6 5 -5 12 2 6 6 9 14 7 17 -3 3 -9
2 -12 -2z"/>
<path d="M775 290 c-3 -5 -1 -10 4 -10 6 0 11 5 11 10 0 6 -2 10 -4 10 -3 0
-8 -4 -11 -10z"/>
<path d="M1635 290 c-3 -5 -1 -10 4 -10 6 0 11 5 11 10 0 6 -2 10 -4 10 -3 0
-8 -4 -11 -10z"/>
</g>
</svg>
