<?xml version="1.0" standalone="no"?>
<!DOCTYPE svg PUBLIC "-//W3C//DTD SVG 20010904//EN"
 "http://www.w3.org/TR/2001/REC-SVG-20010904/DTD/svg10.dtd">
<svg version="1.0" xmlns="http://www.w3.org/2000/svg"
 width="108.000000pt" height="72.000000pt" viewBox="0 0 108.000000 72.000000"
 preserveAspectRatio="xMidYMid meet">

<g transform="translate(0.000000,72.000000) scale(0.100000,-0.100000)"
fill="#000000" stroke="none">
<path d="M542 623 c34 -5 78 -56 78 -89 0 -14 4 -23 9 -19 16 9 -7 69 -36 92
-16 13 -39 22 -53 21 -24 -1 -24 -1 2 -5z"/>
<path d="M322 585 c-17 -14 -33 -39 -37 -55 -6 -26 -11 -30 -38 -30 -60 -1
-107 -44 -127 -118 -25 -93 41 -203 137 -229 23 -6 155 -10 322 -9 l283 1 29
34 c15 19 31 47 34 62 9 40 -21 97 -61 116 -28 14 -32 20 -28 47 10 64 -49
132 -121 141 -39 5 -39 5 8 -8 26 -8 56 -22 67 -32 30 -27 45 -86 32 -125 -11
-29 -10 -31 8 -25 32 10 80 -44 80 -90 0 -44 -26 -92 -55 -102 -11 -4 -146 -6
-300 -5 -275 2 -281 3 -331 27 -64 32 -94 81 -94 156 0 96 55 156 135 147 37
-5 43 -3 36 9 -14 26 1 64 33 84 58 35 108 18 119 -41 4 -22 4 -21 6 6 2 64
-80 87 -137 39z"/>
<path d="M769 303 c-13 -16 -12 -17 4 -4 16 13 21 21 13 21 -2 0 -10 -8 -17
-17z"/>
</g>
</svg>
