<svg width="1011" height="1011" viewBox="0 0 1011 1011" fill="none" xmlns="http://www.w3.org/2000/svg">
<path d="M505.097 506.419C507.865 503.97 509.207 503.591 512.969 503.574C514.383 503.711 515.795 503.864 517.206 504.032C517.96 504.109 518.714 504.186 519.49 504.265C521.765 504.498 524.037 504.751 526.31 505.005C528.667 505.243 531.024 505.479 533.381 505.712C535.093 505.887 535.093 505.887 536.839 506.065C543.693 506.736 550.559 507.276 557.423 507.833C566.596 508.577 575.756 509.369 584.912 510.308C588.945 510.702 592.981 511.041 597.021 511.369C603.362 511.884 609.69 512.486 616.019 513.136C620.084 513.532 624.151 513.869 628.222 514.197C634.094 514.674 639.945 515.242 645.797 515.918C649.493 516.335 653.192 516.722 656.892 517.101C658.701 517.287 660.511 517.476 662.32 517.667C665.939 518.049 669.547 518.419 673.178 518.666C710.596 521.483 743.891 542.488 768.141 570.059C780.205 585.091 788.149 602.61 793.596 620.97C793.953 622.111 794.309 623.251 794.676 624.426C797.278 633.331 798.166 642.155 798.546 651.376C798.6 652.612 798.6 652.612 798.655 653.872C799.436 674.888 795.776 693.429 787.94 712.894C787.226 714.699 787.226 714.699 786.498 716.54C773.461 747.658 746.211 772.657 715.815 786.433C710.27 788.692 704.595 790.442 698.844 792.09C697.673 792.445 696.502 792.799 695.295 793.165C687.325 795.448 679.528 796.497 671.267 797.04C670.287 797.111 670.287 797.111 669.288 797.183C633.558 799.71 596.762 787.933 569.444 764.513C541.683 739.94 522.758 707.184 519.946 669.761C519.823 668.339 519.697 666.917 519.571 665.496C519.319 662.622 519.083 659.746 518.861 656.87C518.568 653.147 518.208 649.434 517.825 645.719C517.219 639.813 516.714 633.903 516.234 627.986C515.867 623.521 515.454 619.063 514.996 614.606C514.391 608.7 513.886 602.791 513.405 596.873C513.039 592.408 512.625 587.951 512.168 583.494C511.637 578.312 511.176 573.129 510.754 567.937C510.245 561.701 509.668 555.476 509.033 549.251C507.583 534.985 506.238 520.713 505.097 506.419ZM540.452 558.745C540.563 559.938 540.673 561.131 540.786 562.361C541.116 565.873 541.488 569.379 541.866 572.887C542.09 575.082 542.311 577.277 542.529 579.472C542.703 581.207 542.703 581.207 542.88 582.977C543.472 588.938 544.043 594.9 544.619 600.862C545.443 609.393 546.276 617.923 547.167 626.448C547.76 632.193 548.291 637.933 548.688 643.695C550.317 666.799 553.113 689.114 565.201 709.359C565.69 710.218 566.179 711.077 566.682 711.962C571.226 719.666 576.739 725.873 583.1 732.119C583.598 732.613 584.096 733.108 584.61 733.617C592.324 741.242 599.931 747.702 609.749 752.492C610.816 753.031 611.883 753.57 612.983 754.125C625.871 760.238 638.812 763.046 652.882 764.513C654.546 764.719 654.546 764.719 656.244 764.93C660.854 765.375 665.254 764.956 669.853 764.513C670.914 764.431 671.975 764.349 673.068 764.264C702.043 761.202 726.318 745.785 744.426 723.477C761.854 700.782 768.923 671.552 765.256 643.274C761.893 619.938 752.1 599.843 735.315 583.349C733.759 581.815 732.226 580.26 730.694 578.701C712.187 560.136 688.038 550.499 662.075 548.845C659.972 548.678 657.87 548.501 655.767 548.323C654.316 548.2 652.864 548.079 651.413 547.961C645.796 547.502 640.192 546.945 634.586 546.371C630.552 545.977 626.516 545.638 622.477 545.31C616.241 544.801 610.016 544.224 603.791 543.589C591.505 542.341 579.216 541.143 566.907 540.151C561.08 539.676 555.267 539.101 549.451 538.498C545.77 538.032 545.77 538.032 542.441 540.139C537.618 545.084 539.748 552.466 540.452 558.745Z" fill="#05192A"/>
<path d="M729.956 577.13C730.656 576.43 731.356 575.73 732.078 575.008C734.796 577.445 737.504 579.894 740.209 582.345C740.971 583.027 741.734 583.71 742.519 584.414C747.066 588.545 751.008 592.727 754.705 597.636C749.654 598.063 749.654 598.063 747.013 596.202C746.386 595.523 745.76 594.844 745.115 594.145C744.403 593.383 743.691 592.622 742.958 591.838C742.168 590.951 741.377 590.064 740.563 589.151C740.095 588.629 739.627 588.107 739.145 587.569C736.052 584.115 732.994 580.632 729.956 577.13Z" fill="#041120"/>
<path d="M550.352 742.593C550.585 742.359 550.819 742.126 551.059 741.886C553.993 744.579 556.923 747.276 559.854 749.973C560.677 750.729 561.501 751.485 562.349 752.264C565.955 755.586 569.537 758.91 572.979 762.403C575.697 765.11 578.466 767.344 581.556 769.587C581.992 770.013 582.429 770.438 582.879 770.877C582.879 771.81 582.879 772.744 582.879 773.705C576.034 769.865 570.768 764.814 565.304 759.25C563.824 757.744 562.334 756.251 560.841 754.759C552.959 746.819 552.959 746.819 550.352 742.593Z" fill="#040C18"/>
<path d="M568.736 719.965C568.97 719.732 569.203 719.498 569.444 719.258C573.271 722.778 577.084 726.313 580.885 729.862C582.179 731.067 583.478 732.268 584.78 733.464C586.653 735.186 588.511 736.922 590.367 738.662C590.951 739.193 591.535 739.724 592.137 740.272C594.619 742.622 596.185 744.209 597.039 747.567C597.033 748.259 597.027 748.951 597.021 749.663C592.988 745.666 588.96 741.663 584.936 737.657C583.566 736.293 582.194 734.931 580.821 733.57C578.852 731.618 576.887 729.662 574.924 727.705C574.305 727.093 573.686 726.482 573.049 725.852C571.584 724.388 570.156 722.887 568.736 721.379C568.736 720.913 568.736 720.446 568.736 719.965Z" fill="#020F1D"/>
<path d="M515.703 627.334C516.637 627.801 517.57 628.268 518.532 628.748C518.532 629.682 518.532 630.615 518.532 631.577C518.911 632.394 519.29 633.21 519.681 634.052C520.001 634.868 520.322 635.685 520.653 636.527C520.186 637.46 519.719 638.393 519.239 639.355C519.487 640.011 519.735 640.668 519.99 641.344C520.883 644.381 519.955 645.811 518.532 648.547C517.495 641.487 516.568 634.418 515.703 627.334Z" fill="#192B3B"/>
<path d="M735.614 769.462C736.547 770.396 737.48 771.329 738.442 772.291C739.375 771.824 740.309 771.357 741.27 770.877C736.768 774.651 732.231 777.86 727.128 780.776C726.895 780.543 726.662 780.309 726.421 780.069C729.116 776.027 732.137 772.821 735.614 769.462Z" fill="#293948"/>
<path d="M772.384 587.03C772.85 586.563 773.317 586.096 773.798 585.615C776.293 586.447 777.301 587.515 779.145 589.372C779.978 590.199 779.978 590.199 780.828 591.043C782.283 592.686 782.283 592.686 783.697 595.515C783.231 595.982 782.764 596.448 782.283 596.929C779.016 593.662 775.75 590.395 772.384 587.03Z" fill="#05101E"/>
<path d="M756.12 614.607C757.299 613.428 758.477 612.25 759.656 611.071C761.289 612.705 762.923 614.338 764.605 616.021C764.139 616.488 763.672 616.954 763.191 617.435C762.491 617.202 761.791 616.968 761.07 616.728C760.37 617.428 759.67 618.128 758.949 618.849C758.015 617.449 757.082 616.049 756.12 614.607Z" fill="#0E1F2F"/>
<path d="M548.23 682.489C549.164 682.022 550.097 681.555 551.059 681.074C553.136 682.268 553.136 682.268 555.302 683.903C555.652 685.653 555.652 685.653 556.009 687.438C555.542 687.905 555.075 688.372 554.594 688.853C552.494 686.752 550.394 684.652 548.23 682.489Z" fill="#07131F"/>
<path d="M612.577 753.906C616.448 754.681 619.086 756.175 622.477 758.149C621.077 759.082 619.677 760.016 618.234 760.978C616.367 758.644 614.501 756.311 612.577 753.906Z" fill="#182938"/>
<path d="M505.097 506.419C506.865 505.181 506.865 505.181 508.633 504.297C508.239 505.129 508.239 505.129 507.837 505.977C506.985 508.702 506.985 508.702 507.97 512.12C508.633 515.611 508.633 515.611 507.614 517.597C507.25 518.108 506.886 518.62 506.511 519.147C506.273 517.556 506.038 515.965 505.804 514.374C505.673 513.488 505.542 512.602 505.407 511.689C505.097 509.247 505.097 509.247 505.097 506.419Z" fill="#2C3B48"/>
<path d="M792.89 664.104C793.823 663.17 794.757 662.237 795.718 661.275C797.177 663.176 797.177 663.176 798.547 665.518C798.313 666.685 798.08 667.851 797.84 669.053C796.906 669.053 795.973 669.053 795.011 669.053C794.778 667.887 794.544 666.72 794.304 665.518C793.837 665.051 793.371 664.584 792.89 664.104Z" fill="#06121F"/>
<path d="M546.109 643.598C547.275 642.898 548.442 642.198 549.644 641.476C549.878 644.51 550.111 647.543 550.351 650.669C548.951 650.202 547.551 649.735 546.109 649.254C546.575 648.788 547.042 648.321 547.523 647.84C547.056 646.44 546.59 645.04 546.109 643.598Z" fill="#101E2B"/>
<path d="M765.312 650.669C767.828 653.185 767.773 654.307 768.141 657.74C768.374 658.44 768.607 659.14 768.848 659.861C767.478 662.115 767.478 662.115 766.019 664.104C765.899 662.66 765.782 661.216 765.666 659.773C765.6 658.969 765.534 658.165 765.467 657.336C765.325 655.105 765.285 652.904 765.312 650.669Z" fill="#102234"/>
<path d="M539.038 598.343C539.972 597.876 540.905 597.41 541.867 596.929C543.634 598.52 543.634 598.52 545.402 600.464C545.402 601.398 545.402 602.331 545.402 603.293C544.702 603.993 544.002 604.693 543.281 605.414C542.843 604.51 542.406 603.606 541.955 602.674C540.686 599.847 540.686 599.847 539.038 598.343Z" fill="#04121F"/>
<path d="M541.159 591.979C542.326 591.279 543.493 590.578 544.695 589.857C544.928 592.891 545.162 595.924 545.402 599.05C544.235 598.35 543.069 597.65 541.867 596.928C541.292 594.321 541.292 594.321 541.159 591.979Z" fill="#142433"/>
<path d="M797.133 642.89C797.833 643.124 798.533 643.357 799.254 643.597C801.269 652.426 801.269 652.426 798.547 657.032C798.504 656.426 798.461 655.82 798.417 655.196C798.114 651.069 797.798 646.978 797.133 642.89Z" fill="#D1D4D3"/>
<path d="M540.453 581.372C541.386 580.905 542.319 580.439 543.281 579.958C543.514 582.525 543.748 585.091 543.988 587.736C543.055 587.269 542.121 586.803 541.16 586.322C540.46 586.555 539.76 586.788 539.038 587.029C539.569 584.289 539.569 584.289 540.453 581.372Z" fill="#0F2032"/>
<path d="M723.593 778.655C726.393 776.321 729.193 773.988 732.078 771.584C730.587 776.056 729.093 777.647 725.714 780.776C725.014 780.076 724.314 779.376 723.593 778.655Z" fill="#03101D"/>
<path d="M519.239 656.326C520.172 655.859 521.105 655.393 522.067 654.912C522.067 657.712 522.067 660.512 522.067 663.397C521.134 663.864 520.2 664.33 519.239 664.811C519.239 662.011 519.239 659.211 519.239 656.326Z" fill="#132536"/>
<path d="M753.291 707.945C754.691 706.544 756.091 705.144 757.534 703.702C758.467 704.169 759.4 704.635 760.362 705.116C758.495 706.983 756.629 708.85 754.705 710.773C754.239 709.84 753.772 708.906 753.291 707.945Z" fill="#040F1D"/>
<path d="M788.647 616.021C789.347 615.787 790.047 615.554 790.768 615.313C793.023 618.273 793.953 620.055 793.596 623.799C791.519 622.694 791.519 622.694 789.354 620.97C788.735 618.319 788.735 618.319 788.647 616.021Z" fill="#132534"/>
<path d="M773.091 584.908C774.024 583.974 774.958 583.041 775.919 582.079C777.553 584.646 779.186 587.213 780.869 589.857C780.636 590.091 780.402 590.324 780.162 590.564C777.828 588.698 775.495 586.831 773.091 584.908Z" fill="#192B3C"/>
<path d="M528.432 706.53C529.132 706.764 529.832 706.997 530.553 707.237C531.02 706.771 531.487 706.304 531.967 705.823C532.434 706.29 532.901 706.757 533.382 707.237C533.208 709.835 532.975 712.43 532.675 715.016C531.274 712.215 529.874 709.415 528.432 706.53Z" fill="#273849"/>
<path d="M514.996 618.141C515.463 617.675 515.93 617.208 516.411 616.727C518.17 619.049 518.554 619.988 518.311 622.959C518.151 623.702 517.99 624.446 517.825 625.213C517.125 625.446 516.425 625.679 515.704 625.92C515.403 623.334 515.17 620.739 514.996 618.141Z" fill="#192C3E"/>
<path d="M510.046 563.694C511.213 564.394 512.38 565.094 513.582 565.815C513.803 568.776 513.803 568.776 513.582 571.472C512.649 571.939 511.715 572.406 510.753 572.887C510.52 569.853 510.287 566.82 510.046 563.694Z" fill="#233546"/>
<path d="M733.492 771.584C734.192 770.884 734.892 770.184 735.614 769.463C736.547 770.396 737.48 771.33 738.442 772.291C739.375 771.825 740.309 771.358 741.271 770.877C738.497 772.876 736.931 773.725 733.492 774.413C733.492 773.479 733.492 772.546 733.492 771.584Z" fill="#1D2F3D"/>
<path d="M794.304 676.832C795.471 676.132 796.637 675.432 797.839 674.711C797.373 677.511 796.906 680.311 796.425 683.196C794.304 679.661 794.304 679.661 794.304 676.832Z" fill="#152334"/>
<path d="M763.898 640.769C764.598 640.536 765.298 640.303 766.019 640.062C766.486 640.529 766.953 640.996 767.433 641.477C767.433 643.362 767.433 645.248 767.433 647.133C766.5 647.6 765.567 648.067 764.605 648.548C764.372 645.981 764.138 643.414 763.898 640.769Z" fill="#223647"/>
<path d="M544.695 623.799C545.628 623.799 546.561 623.799 547.523 623.799C547.523 626.132 547.523 628.466 547.523 630.87C544.695 626.981 544.695 626.981 544.695 623.799Z" fill="#112333"/>
<path d="M504.035 505.097C506.484 507.865 506.863 509.207 506.88 512.969C506.744 514.383 506.59 515.796 506.422 517.206C506.345 517.96 506.269 518.714 506.19 519.491C505.957 521.766 505.704 524.038 505.45 526.31C505.211 528.667 504.976 531.024 504.743 533.381C504.568 535.093 504.568 535.093 504.389 536.84C503.718 543.694 503.178 550.559 502.621 557.423C501.877 566.596 501.085 575.756 500.146 584.912C499.753 588.946 499.414 592.982 499.086 597.021C498.571 603.362 497.968 609.69 497.318 616.019C496.922 620.084 496.586 624.151 496.257 628.222C495.78 634.094 495.213 639.945 494.536 645.798C494.119 649.494 493.733 653.192 493.354 656.892C493.168 658.702 492.979 660.511 492.787 662.321C492.405 665.94 492.035 669.547 491.788 673.179C488.971 710.596 467.966 743.891 440.396 768.141C425.364 780.206 407.845 788.149 389.484 793.597C388.344 793.953 387.204 794.31 386.029 794.677C377.123 797.278 368.299 798.167 359.079 798.547C357.843 798.6 357.843 798.6 356.582 798.655C335.567 799.437 317.025 795.777 297.56 787.94C295.755 787.226 295.755 787.226 293.914 786.498C262.797 773.461 237.797 746.211 224.021 715.815C221.762 710.27 220.012 704.595 218.364 698.844C218.01 697.673 217.655 696.502 217.29 695.295C215.006 687.325 213.957 679.528 213.415 671.267C213.343 670.288 213.343 670.288 213.271 669.288C210.745 633.558 222.521 596.762 245.941 569.444C270.514 541.684 303.271 522.759 340.694 519.946C342.115 519.823 343.537 519.698 344.958 519.571C347.833 519.319 350.708 519.084 353.585 518.861C357.307 518.569 361.021 518.208 364.735 517.825C370.641 517.219 376.551 516.715 382.468 516.234C386.934 515.868 391.391 515.454 395.848 514.997C401.754 514.391 407.664 513.886 413.581 513.406C418.046 513.039 422.504 512.625 426.961 512.168C432.142 511.637 437.326 511.176 442.517 510.754C448.753 510.246 454.978 509.668 461.203 509.033C475.469 507.584 489.741 506.238 504.035 505.097ZM451.71 540.453C450.516 540.563 449.323 540.673 448.094 540.787C444.581 541.117 441.075 541.488 437.567 541.867C435.373 542.09 433.178 542.311 430.982 542.53C429.247 542.703 429.247 542.703 427.477 542.88C421.517 543.472 415.554 544.044 409.592 544.619C401.061 545.443 392.531 546.276 384.007 547.167C378.261 547.761 372.522 548.291 366.759 548.688C343.655 550.317 321.34 553.113 301.096 565.201C300.237 565.69 299.378 566.179 298.492 566.682C290.788 571.226 284.582 576.74 278.336 583.1C277.841 583.598 277.347 584.097 276.837 584.61C269.212 592.325 262.752 599.931 257.962 609.749C257.424 610.816 256.885 611.884 256.33 612.983C250.217 625.872 247.409 638.812 245.941 652.883C245.735 654.546 245.735 654.546 245.524 656.244C245.079 660.854 245.498 665.254 245.941 669.853C246.023 670.914 246.106 671.975 246.19 673.068C249.252 702.043 264.669 726.318 286.978 744.427C309.673 761.854 338.903 768.923 367.18 765.257C390.517 761.893 410.611 752.1 427.105 735.315C428.639 733.759 430.194 732.226 431.753 730.695C450.319 712.187 459.955 688.038 461.609 662.075C461.776 659.972 461.953 657.87 462.132 655.768C462.255 654.316 462.375 652.865 462.494 651.413C462.952 645.796 463.509 640.192 464.084 634.586C464.477 630.552 464.816 626.516 465.145 622.477C465.653 616.241 466.23 610.016 466.865 603.791C468.114 591.505 469.311 579.216 470.304 566.907C470.778 561.08 471.353 555.267 471.956 549.452C472.423 545.771 472.423 545.771 470.315 542.441C465.37 537.618 457.988 539.749 451.71 540.453Z" fill="#05192A"/>
<path d="M433.325 729.957C434.025 730.657 434.725 731.357 435.446 732.078C433.009 734.797 430.561 737.504 428.11 740.21C427.427 740.972 426.744 741.734 426.041 742.519C421.909 747.066 417.728 751.008 412.818 754.705C412.392 749.655 412.392 749.655 414.252 747.013C414.931 746.387 415.61 745.76 416.31 745.115C417.071 744.403 417.832 743.692 418.616 742.958C419.503 742.168 420.39 741.378 421.304 740.563C421.826 740.095 422.348 739.627 422.885 739.145C426.339 736.052 429.822 732.994 433.325 729.957Z" fill="#041120"/>
<path d="M267.862 550.352C268.095 550.586 268.328 550.819 268.569 551.059C265.875 553.993 263.179 556.924 260.481 559.854C259.725 560.678 258.969 561.501 258.19 562.35C254.868 565.956 251.544 569.538 248.052 572.98C245.344 575.698 243.111 578.466 240.867 581.556C240.442 581.993 240.016 582.429 239.577 582.879C238.644 582.879 237.711 582.879 236.749 582.879C240.59 576.035 245.641 570.769 251.204 565.304C252.71 563.825 254.204 562.334 255.696 560.841C263.636 552.959 263.636 552.959 267.862 550.352Z" fill="#040C18"/>
<path d="M290.489 568.737C290.723 568.97 290.956 569.203 291.196 569.444C287.676 573.271 284.142 577.084 280.592 580.885C279.388 582.18 278.187 583.478 276.99 584.78C275.268 586.653 273.532 588.511 271.792 590.367C271.261 590.951 270.73 591.535 270.183 592.137C267.833 594.619 266.246 596.186 262.888 597.039C262.196 597.033 261.504 597.027 260.791 597.021C264.789 592.988 268.791 588.96 272.798 584.937C274.161 583.566 275.523 582.194 276.884 580.821C278.836 578.852 280.792 576.888 282.75 574.924C283.361 574.305 283.973 573.687 284.603 573.049C286.067 571.585 287.568 570.157 289.075 568.737C289.542 568.737 290.009 568.737 290.489 568.737Z" fill="#020F1D"/>
<path d="M383.12 515.703C382.653 516.637 382.187 517.57 381.706 518.532C380.773 518.532 379.839 518.532 378.877 518.532C378.061 518.911 377.244 519.29 376.403 519.681C375.586 520.002 374.769 520.323 373.928 520.653C372.994 520.186 372.061 519.72 371.099 519.239C370.443 519.487 369.787 519.735 369.111 519.99C366.073 520.884 364.644 519.955 361.907 518.532C368.967 517.495 376.037 516.568 383.12 515.703Z" fill="#192B3B"/>
<path d="M240.992 735.614C240.059 736.547 239.125 737.481 238.164 738.442C238.63 739.376 239.097 740.309 239.578 741.271C235.803 736.768 232.594 732.232 229.678 727.129C229.912 726.895 230.145 726.662 230.385 726.422C234.427 729.116 237.633 732.137 240.992 735.614Z" fill="#293948"/>
<path d="M423.425 772.384C423.891 772.851 424.358 773.317 424.839 773.798C424.007 776.294 422.939 777.302 421.083 779.146C420.255 779.978 420.255 779.978 419.411 780.828C417.768 782.284 417.768 782.284 414.94 783.698C414.473 783.231 414.006 782.764 413.525 782.284C416.792 779.017 420.059 775.75 423.425 772.384Z" fill="#05101E"/>
<path d="M395.848 756.12C397.026 757.299 398.205 758.477 399.383 759.656C397.75 761.289 396.116 762.923 394.434 764.606C393.967 764.139 393.5 763.672 393.019 763.192C393.253 762.491 393.486 761.791 393.726 761.07C393.026 760.37 392.326 759.67 391.605 758.949C393.005 758.016 394.405 757.082 395.848 756.12Z" fill="#0E1F2F"/>
<path d="M327.966 548.231C328.433 549.164 328.899 550.098 329.38 551.059C328.187 553.136 328.187 553.136 326.552 555.302C324.802 555.652 324.802 555.652 323.016 556.009C322.549 555.542 322.083 555.076 321.602 554.595C323.702 552.495 325.802 550.394 327.966 548.231Z" fill="#07131F"/>
<path d="M256.548 612.577C255.774 616.448 254.279 619.086 252.305 622.477C251.372 621.077 250.439 619.677 249.477 618.234C251.81 616.368 254.144 614.501 256.548 612.577Z" fill="#182938"/>
<path d="M504.036 505.098C505.273 506.865 505.273 506.865 506.157 508.633C505.326 508.239 505.326 508.239 504.478 507.838C501.752 506.986 501.752 506.986 498.335 507.97C494.843 508.633 494.843 508.633 492.857 507.614C492.346 507.25 491.835 506.886 491.308 506.512C492.898 506.274 494.49 506.038 496.081 505.805C496.967 505.673 497.853 505.542 498.766 505.407C501.207 505.098 501.207 505.098 504.036 505.098Z" fill="#2C3B48"/>
<path d="M346.351 792.89C347.284 793.823 348.217 794.757 349.179 795.719C347.279 797.177 347.279 797.177 344.937 798.547C343.77 798.314 342.603 798.08 341.401 797.84C341.401 796.906 341.401 795.973 341.401 795.011C342.568 794.778 343.734 794.545 344.937 794.304C345.403 793.838 345.87 793.371 346.351 792.89Z" fill="#06121F"/>
<path d="M366.857 546.109C367.557 547.276 368.257 548.442 368.978 549.645C365.945 549.878 362.911 550.111 359.786 550.352C360.252 548.952 360.719 547.551 361.2 546.109C361.667 546.576 362.133 547.042 362.614 547.523C364.014 547.056 365.414 546.59 366.857 546.109Z" fill="#101E2B"/>
<path d="M359.786 765.312C357.27 767.828 356.148 767.773 352.715 768.141C352.015 768.374 351.315 768.608 350.593 768.848C348.34 767.478 348.34 767.478 346.351 766.02C347.794 765.9 349.238 765.782 350.682 765.666C351.486 765.6 352.29 765.535 353.118 765.467C355.349 765.325 357.551 765.285 359.786 765.312Z" fill="#102234"/>
<path d="M412.111 539.039C412.578 539.972 413.045 540.905 413.526 541.867C411.935 543.635 411.935 543.635 409.99 545.402C409.057 545.402 408.123 545.402 407.162 545.402C406.462 544.702 405.762 544.002 405.04 543.281C405.945 542.844 406.849 542.406 407.78 541.955C410.607 540.687 410.607 540.687 412.111 539.039Z" fill="#04121F"/>
<path d="M418.476 541.16C419.176 542.326 419.876 543.493 420.597 544.695C417.564 544.929 414.53 545.162 411.405 545.402C412.105 544.236 412.805 543.069 413.526 541.867C416.134 541.292 416.134 541.292 418.476 541.16Z" fill="#142433"/>
<path d="M367.564 797.133C367.331 797.833 367.097 798.533 366.857 799.254C358.029 801.269 358.029 801.269 353.422 798.547C354.028 798.504 354.634 798.461 355.259 798.417C359.386 798.115 363.476 797.798 367.564 797.133Z" fill="#D1D4D3"/>
<path d="M429.082 540.453C429.549 541.386 430.016 542.32 430.497 543.281C427.93 543.515 425.363 543.748 422.718 543.988C423.185 543.055 423.652 542.122 424.133 541.16C423.899 540.46 423.666 539.76 423.426 539.039C426.166 539.569 426.166 539.569 429.082 540.453Z" fill="#0F2032"/>
<path d="M231.8 723.593C234.133 726.393 236.467 729.193 238.871 732.078C234.399 730.588 232.807 729.094 229.678 725.714C230.379 725.014 231.079 724.314 231.8 723.593Z" fill="#03101D"/>
<path d="M354.128 519.239C354.595 520.172 355.062 521.106 355.543 522.067C352.742 522.067 349.942 522.067 347.057 522.067C346.591 521.134 346.124 520.201 345.643 519.239C348.443 519.239 351.243 519.239 354.128 519.239Z" fill="#132536"/>
<path d="M302.51 753.291C303.91 754.691 305.31 756.092 306.752 757.534C306.286 758.467 305.819 759.401 305.338 760.362C303.472 758.496 301.605 756.629 299.681 754.706C300.615 754.239 301.548 753.772 302.51 753.291Z" fill="#040F1D"/>
<path d="M394.434 788.647C394.667 789.347 394.901 790.047 395.141 790.768C392.181 793.023 390.399 793.953 386.656 793.597C387.761 791.52 387.761 791.52 389.484 789.354C392.136 788.735 392.136 788.735 394.434 788.647Z" fill="#132534"/>
<path d="M425.547 773.091C426.48 774.024 427.414 774.958 428.375 775.92C425.809 777.553 423.242 779.186 420.597 780.869C420.364 780.636 420.13 780.403 419.89 780.162C421.757 777.829 423.624 775.495 425.547 773.091Z" fill="#192B3C"/>
<path d="M303.924 528.432C303.691 529.132 303.457 529.832 303.217 530.553C303.684 531.02 304.15 531.487 304.631 531.968C304.164 532.434 303.698 532.901 303.217 533.382C300.619 533.209 298.025 532.975 295.439 532.675C298.239 531.275 301.039 529.875 303.924 528.432Z" fill="#273849"/>
<path d="M392.313 514.997C392.78 515.463 393.246 515.93 393.727 516.411C391.405 518.17 390.466 518.555 387.496 518.311C386.752 518.151 386.008 517.99 385.242 517.825C385.008 517.125 384.775 516.425 384.535 515.704C387.121 515.403 389.715 515.17 392.313 514.997Z" fill="#192C3E"/>
<path d="M446.76 510.047C446.06 511.213 445.36 512.38 444.639 513.582C441.678 513.803 441.678 513.803 438.982 513.582C438.515 512.649 438.049 511.715 437.568 510.754C440.601 510.52 443.635 510.287 446.76 510.047Z" fill="#233546"/>
<path d="M238.87 733.493C239.57 734.193 240.27 734.893 240.992 735.614C240.058 736.547 239.125 737.481 238.163 738.442C238.63 739.376 239.097 740.309 239.577 741.271C237.578 738.498 236.73 736.931 236.042 733.493C236.975 733.493 237.909 733.493 238.87 733.493Z" fill="#1D2F3D"/>
<path d="M333.622 794.304C334.322 795.471 335.022 796.638 335.744 797.84C332.943 797.373 330.143 796.906 327.258 796.426C330.794 794.304 330.794 794.304 333.622 794.304Z" fill="#152334"/>
<path d="M369.685 763.898C369.918 764.598 370.152 765.298 370.392 766.019C369.925 766.486 369.459 766.953 368.978 767.434C367.092 767.434 365.207 767.434 363.321 767.434C362.854 766.5 362.388 765.567 361.907 764.605C364.474 764.372 367.04 764.139 369.685 763.898Z" fill="#223647"/>
<path d="M386.655 544.695C386.656 545.628 386.656 546.562 386.655 547.523C384.322 547.523 381.989 547.523 379.584 547.523C383.474 544.695 383.474 544.695 386.655 544.695Z" fill="#112333"/>
<path d="M506.902 502.49C504.134 504.939 502.792 505.318 499.03 505.335C497.616 505.198 496.204 505.044 494.793 504.876C494.039 504.8 493.285 504.723 492.509 504.644C490.234 504.411 487.962 504.158 485.689 503.904C483.332 503.666 480.975 503.43 478.618 503.197C476.906 503.022 476.906 503.022 475.16 502.843C468.306 502.173 461.44 501.632 454.576 501.076C445.403 500.332 436.243 499.54 427.087 498.601C423.054 498.207 419.018 497.868 414.978 497.54C408.637 497.025 402.309 496.422 395.98 495.772C391.915 495.376 387.848 495.04 383.777 494.712C377.905 494.235 372.054 493.667 366.202 492.991C362.506 492.574 358.807 492.187 355.107 491.808C353.298 491.622 351.488 491.433 349.679 491.241C346.06 490.859 342.452 490.49 338.821 490.242C301.403 487.425 268.108 466.421 243.858 438.85C231.794 423.818 223.85 406.299 218.403 387.938C218.046 386.798 217.69 385.658 217.323 384.483C214.721 375.577 213.833 366.754 213.453 357.533C213.399 356.297 213.399 356.297 213.344 355.037C212.563 334.021 216.223 315.479 224.059 296.015C224.773 294.21 224.773 294.21 225.501 292.369C238.538 261.251 265.788 236.251 296.184 222.476C301.729 220.216 307.404 218.467 313.155 216.819C314.326 216.464 315.497 216.109 316.704 215.744C324.674 213.46 332.471 212.411 340.732 211.869C341.712 211.798 341.712 211.798 342.711 211.725C378.441 209.199 415.237 220.975 442.555 244.396C470.316 268.969 489.241 301.725 492.053 339.148C492.176 340.57 492.302 341.991 492.429 343.413C492.68 346.287 492.916 349.162 493.138 352.039C493.431 355.762 493.791 359.475 494.174 363.19C494.78 369.096 495.285 375.006 495.765 380.923C496.132 385.388 496.545 389.845 497.003 394.302C497.608 400.208 498.113 406.118 498.594 412.035C498.96 416.501 499.374 420.958 499.831 425.415C500.362 430.597 500.823 435.78 501.245 440.971C501.754 447.208 502.331 453.433 502.966 459.657C504.416 473.924 505.761 488.195 506.902 502.49ZM471.547 450.164C471.436 448.971 471.326 447.778 471.213 446.548C470.883 443.036 470.511 439.529 470.133 436.022C469.909 433.827 469.688 431.632 469.47 429.437C469.296 427.702 469.296 427.702 469.119 425.932C468.527 419.971 467.956 414.009 467.38 408.046C466.556 399.516 465.723 390.985 464.832 382.461C464.239 376.716 463.708 370.976 463.311 365.214C461.682 342.11 458.886 319.795 446.798 299.55C446.309 298.691 445.82 297.832 445.317 296.947C440.773 289.242 435.26 283.036 428.899 276.79C428.401 276.296 427.903 275.801 427.389 275.292C419.675 267.667 412.069 261.207 402.25 256.417C401.183 255.878 400.116 255.339 399.016 254.784C386.128 248.671 373.187 245.863 359.117 244.396C357.453 244.189 357.453 244.189 355.755 243.979C351.145 243.533 346.745 243.953 342.146 244.396C341.085 244.478 340.024 244.56 338.931 244.644C309.956 247.706 285.681 263.123 267.573 285.432C250.145 308.127 243.076 337.357 246.743 365.634C250.106 388.971 259.899 409.065 276.684 425.56C278.241 427.094 279.773 428.649 281.305 430.207C299.812 448.773 323.961 458.41 349.924 460.063C352.027 460.23 354.129 460.408 356.232 460.586C357.683 460.709 359.135 460.83 360.586 460.948C366.203 461.407 371.807 461.963 377.413 462.538C381.447 462.932 385.483 463.271 389.522 463.599C395.759 464.107 401.983 464.685 408.208 465.32C420.494 466.568 432.783 467.765 445.092 468.758C450.919 469.232 456.732 469.807 462.548 470.41C466.229 470.877 466.229 470.877 469.558 468.77C474.381 463.824 472.251 456.443 471.547 450.164Z" fill="#05192A"/>
<path d="M282.043 431.779C281.343 432.479 280.643 433.179 279.921 433.9C277.203 431.464 274.495 429.015 271.79 426.564C271.028 425.881 270.266 425.199 269.48 424.495C264.933 420.364 260.991 416.182 257.294 411.273C262.345 410.846 262.345 410.846 264.986 412.706C265.613 413.385 266.239 414.065 266.884 414.764C267.596 415.525 268.308 416.286 269.041 417.071C269.832 417.957 270.622 418.844 271.436 419.758C271.904 420.28 272.372 420.802 272.854 421.34C275.947 424.794 279.005 428.276 282.043 431.779Z" fill="#041120"/>
<path d="M461.647 266.316C461.414 266.549 461.18 266.783 460.94 267.023C458.006 264.33 455.076 261.633 452.145 258.936C451.322 258.18 450.498 257.423 449.65 256.644C446.044 253.323 442.462 249.998 439.02 246.506C436.302 243.799 433.533 241.565 430.443 239.322C430.007 238.896 429.57 238.47 429.12 238.032C429.12 237.098 429.12 236.165 429.12 235.203C435.965 239.044 441.231 244.095 446.695 249.659C448.175 251.164 449.665 252.658 451.158 254.15C459.04 262.09 459.04 262.09 461.647 266.316Z" fill="#040C18"/>
<path d="M443.263 288.944C443.029 289.177 442.796 289.41 442.555 289.651C438.728 286.131 434.915 282.596 431.114 279.047C429.82 277.842 428.521 276.641 427.219 275.444C425.346 273.722 423.488 271.986 421.632 270.247C421.048 269.716 420.464 269.184 419.862 268.637C417.38 266.287 415.814 264.7 414.96 261.342C414.966 260.65 414.972 259.958 414.978 259.245C419.011 263.243 423.039 267.245 427.063 271.252C428.433 272.615 429.805 273.978 431.178 275.338C433.147 277.29 435.112 279.247 437.075 281.204C437.694 281.816 438.313 282.427 438.95 283.057C440.415 284.521 441.843 286.022 443.263 287.53C443.263 287.996 443.263 288.463 443.263 288.944Z" fill="#020F1D"/>
<path d="M496.296 381.574C495.363 381.108 494.429 380.641 493.467 380.16C493.467 379.227 493.467 378.294 493.467 377.332C493.088 376.515 492.709 375.698 492.318 374.857C491.998 374.04 491.677 373.224 491.346 372.382C491.813 371.449 492.28 370.515 492.76 369.554C492.512 368.897 492.265 368.241 492.009 367.565C491.116 364.528 492.044 363.098 493.467 360.361C494.504 367.421 495.431 374.491 496.296 381.574Z" fill="#192B3B"/>
<path d="M276.385 239.446C275.452 238.513 274.519 237.58 273.557 236.618C272.624 237.085 271.69 237.551 270.729 238.032C275.231 234.258 279.768 231.049 284.871 228.133C285.104 228.366 285.337 228.599 285.578 228.84C282.883 232.881 279.862 236.088 276.385 239.446Z" fill="#293948"/>
<path d="M239.615 421.879C239.149 422.346 238.682 422.813 238.201 423.293C235.706 422.462 234.698 421.393 232.854 419.537C232.021 418.71 232.021 418.71 231.171 417.866C229.716 416.222 229.716 416.222 228.302 413.394C228.768 412.927 229.235 412.461 229.716 411.98C232.983 415.247 236.249 418.513 239.615 421.879Z" fill="#05101E"/>
<path d="M255.879 394.302C254.7 395.481 253.522 396.659 252.343 397.838C250.71 396.204 249.076 394.571 247.394 392.888C247.86 392.421 248.327 391.955 248.808 391.474C249.508 391.707 250.208 391.94 250.929 392.181C251.629 391.481 252.329 390.781 253.05 390.059C253.984 391.46 254.917 392.86 255.879 394.302Z" fill="#0E1F2F"/>
<path d="M463.769 326.42C462.835 326.887 461.902 327.354 460.94 327.834C458.863 326.641 458.863 326.641 456.697 325.006C456.347 323.256 456.347 323.256 455.99 321.47C456.457 321.004 456.924 320.537 457.405 320.056C459.505 322.156 461.605 324.256 463.769 326.42Z" fill="#07131F"/>
<path d="M399.422 255.002C395.551 254.228 392.913 252.733 389.522 250.76C390.922 249.826 392.322 248.893 393.765 247.931C395.632 250.265 397.498 252.598 399.422 255.002Z" fill="#182938"/>
<path d="M506.902 502.49C505.134 503.728 505.134 503.728 503.366 504.611C503.76 503.78 503.76 503.78 504.162 502.932C505.014 500.206 505.014 500.206 504.029 496.789C503.366 493.298 503.366 493.298 504.385 491.312C504.749 490.8 505.113 490.289 505.488 489.762C505.726 491.353 505.961 492.944 506.195 494.535C506.326 495.421 506.457 496.307 506.592 497.22C506.902 499.662 506.902 499.662 506.902 502.49Z" fill="#2C3B48"/>
<path d="M219.109 344.805C218.176 345.738 217.242 346.672 216.281 347.634C214.822 345.733 214.822 345.733 213.452 343.391C213.686 342.224 213.919 341.057 214.159 339.855C215.093 339.855 216.026 339.855 216.988 339.855C217.221 341.022 217.455 342.189 217.695 343.391C218.162 343.858 218.628 344.324 219.109 344.805Z" fill="#06121F"/>
<path d="M465.89 365.311C464.724 366.011 463.557 366.711 462.355 367.432C462.121 364.399 461.888 361.365 461.648 358.24C463.048 358.707 464.448 359.173 465.89 359.654C465.424 360.121 464.957 360.588 464.476 361.068C464.943 362.469 465.409 363.869 465.89 365.311Z" fill="#101E2B"/>
<path d="M246.687 358.24C244.171 355.724 244.226 354.602 243.858 351.169C243.625 350.469 243.392 349.769 243.151 349.048C244.521 346.794 244.521 346.794 245.98 344.805C246.1 346.249 246.217 347.692 246.333 349.136C246.399 349.94 246.465 350.744 246.532 351.572C246.674 353.804 246.714 356.005 246.687 358.24Z" fill="#102234"/>
<path d="M472.961 410.566C472.027 411.033 471.094 411.499 470.132 411.98C468.365 410.389 468.365 410.389 466.597 408.445C466.597 407.511 466.597 406.578 466.597 405.616C467.297 404.916 467.997 404.216 468.718 403.495C469.156 404.399 469.593 405.303 470.044 406.235C471.313 409.061 471.313 409.061 472.961 410.566Z" fill="#04121F"/>
<path d="M470.84 416.93C469.673 417.63 468.506 418.33 467.304 419.052C467.071 416.018 466.837 412.985 466.597 409.859C467.764 410.559 468.93 411.259 470.133 411.98C470.707 414.588 470.707 414.588 470.84 416.93Z" fill="#142433"/>
<path d="M214.867 366.019C214.166 365.785 213.466 365.552 212.745 365.311C210.73 356.483 210.73 356.483 213.452 351.876C213.495 352.483 213.538 353.089 213.582 353.713C213.885 357.84 214.201 361.931 214.867 366.019Z" fill="#D1D4D3"/>
<path d="M471.546 427.537C470.613 428.003 469.68 428.47 468.718 428.951C468.485 426.384 468.251 423.817 468.011 421.173C468.944 421.64 469.878 422.106 470.839 422.587C471.539 422.354 472.239 422.12 472.961 421.88C472.43 424.62 472.43 424.62 471.546 427.537Z" fill="#0F2032"/>
<path d="M288.406 230.254C285.606 232.588 282.806 234.921 279.921 237.325C281.412 232.853 282.906 231.262 286.285 228.133C286.985 228.833 287.685 229.533 288.406 230.254Z" fill="#03101D"/>
<path d="M492.76 352.583C491.827 353.049 490.894 353.516 489.932 353.997C489.932 351.197 489.932 348.397 489.932 345.512C490.865 345.045 491.799 344.578 492.76 344.097C492.76 346.898 492.76 349.698 492.76 352.583Z" fill="#132536"/>
<path d="M258.708 300.964C257.308 302.364 255.908 303.764 254.465 305.207C253.532 304.74 252.599 304.273 251.637 303.793C253.504 301.926 255.37 300.059 257.294 298.136C257.76 299.069 258.227 300.003 258.708 300.964Z" fill="#040F1D"/>
<path d="M223.352 392.888C222.652 393.122 221.952 393.355 221.231 393.595C218.976 390.635 218.046 388.854 218.403 385.11C220.48 386.215 220.48 386.215 222.645 387.938C223.264 390.59 223.264 390.59 223.352 392.888Z" fill="#132534"/>
<path d="M238.908 424.001C237.975 424.935 237.041 425.868 236.08 426.83C234.446 424.263 232.813 421.696 231.13 419.052C231.363 418.818 231.597 418.585 231.837 418.344C234.171 420.211 236.504 422.078 238.908 424.001Z" fill="#192B3C"/>
<path d="M483.567 302.378C482.867 302.145 482.167 301.912 481.446 301.671C480.979 302.138 480.512 302.605 480.032 303.086C479.565 302.619 479.098 302.152 478.617 301.671C478.791 299.074 479.024 296.479 479.325 293.893C480.725 296.693 482.125 299.493 483.567 302.378Z" fill="#273849"/>
<path d="M497.003 390.767C496.536 391.234 496.069 391.701 495.588 392.181C493.829 389.859 493.445 388.92 493.688 385.95C493.848 385.206 494.009 384.463 494.174 383.696C494.874 383.463 495.574 383.229 496.295 382.989C496.596 385.575 496.829 388.17 497.003 390.767Z" fill="#192C3E"/>
<path d="M501.953 445.215C500.786 444.515 499.619 443.815 498.417 443.093C498.196 440.132 498.196 440.132 498.417 437.436C499.351 436.97 500.284 436.503 501.246 436.022C501.479 439.056 501.712 442.089 501.953 445.215Z" fill="#233546"/>
<path d="M278.507 237.325C277.807 238.025 277.107 238.725 276.385 239.446C275.452 238.513 274.519 237.579 273.557 236.618C272.624 237.084 271.69 237.551 270.729 238.032C273.502 236.032 275.068 235.184 278.507 234.496C278.507 235.43 278.507 236.363 278.507 237.325Z" fill="#1D2F3D"/>
<path d="M217.695 332.077C216.528 332.777 215.362 333.477 214.16 334.198C214.626 331.398 215.093 328.598 215.574 325.713C217.695 329.248 217.695 329.248 217.695 332.077Z" fill="#152334"/>
<path d="M248.101 368.139C247.401 368.373 246.701 368.606 245.98 368.846C245.513 368.38 245.046 367.913 244.566 367.432C244.566 365.547 244.566 363.661 244.566 361.775C245.499 361.309 246.432 360.842 247.394 360.361C247.627 362.928 247.861 365.495 248.101 368.139Z" fill="#223647"/>
<path d="M467.304 385.11C466.371 385.11 465.438 385.11 464.476 385.11C464.476 382.776 464.476 380.443 464.476 378.039C467.304 381.928 467.304 381.928 467.304 385.11Z" fill="#112333"/>
<path d="M507.965 506.902C505.516 504.134 505.137 502.792 505.12 499.03C505.256 497.616 505.41 496.204 505.578 494.793C505.655 494.039 505.731 493.286 505.81 492.509C506.043 490.234 506.296 487.962 506.55 485.689C506.789 483.332 507.024 480.975 507.257 478.618C507.432 476.906 507.432 476.906 507.611 475.16C508.282 468.306 508.822 461.441 509.379 454.576C510.123 445.404 510.915 436.243 511.854 427.088C512.247 423.054 512.586 419.018 512.914 414.978C513.429 408.637 514.032 402.31 514.682 395.981C515.078 391.916 515.414 387.848 515.743 383.777C516.22 377.906 516.787 372.055 517.464 366.202C517.881 362.506 518.267 358.808 518.646 355.108C518.832 353.298 519.021 351.488 519.213 349.679C519.595 346.06 519.965 342.452 520.212 338.821C523.029 301.403 544.034 268.108 571.604 243.859C586.636 231.794 604.155 223.85 622.516 218.403C623.656 218.046 624.796 217.69 625.971 217.323C634.877 214.721 643.701 213.833 652.921 213.453C654.157 213.399 654.157 213.399 655.418 213.345C676.433 212.563 694.975 216.223 714.44 224.06C716.245 224.773 716.245 224.773 718.086 225.502C749.203 238.539 774.203 265.788 787.979 296.185C790.238 301.729 791.988 307.404 793.636 313.155C793.99 314.326 794.345 315.498 794.71 316.704C796.994 324.675 798.043 332.471 798.585 340.732C798.657 341.712 798.657 341.712 798.729 342.711C801.255 378.441 789.479 415.237 766.059 442.556C741.486 470.316 708.729 489.241 671.306 492.053C669.885 492.177 668.463 492.302 667.042 492.429C664.167 492.68 661.292 492.916 658.415 493.139C654.693 493.431 650.979 493.791 647.265 494.174C641.359 494.78 635.449 495.285 629.532 495.765C625.066 496.132 620.609 496.546 616.152 497.003C610.246 497.609 604.336 498.113 598.419 498.594C593.954 498.96 589.496 499.374 585.039 499.831C579.858 500.363 574.674 500.824 569.483 501.246C563.247 501.754 557.022 502.331 550.797 502.966C536.531 504.416 522.259 505.762 507.965 506.902ZM560.29 471.547C561.484 471.437 562.677 471.326 563.906 471.213C567.419 470.883 570.925 470.511 574.433 470.133C576.627 469.91 578.822 469.689 581.018 469.47C582.753 469.296 582.753 469.296 584.523 469.119C590.483 468.527 596.446 467.956 602.408 467.381C610.939 466.557 619.469 465.723 627.993 464.832C633.739 464.239 639.478 463.708 645.241 463.312C668.345 461.683 690.66 458.886 710.904 446.798C711.763 446.31 712.622 445.821 713.508 445.317C721.212 440.774 727.418 435.26 733.664 428.9C734.159 428.401 734.653 427.903 735.163 427.389C742.788 419.675 749.248 412.069 754.038 402.251C754.576 401.183 755.115 400.116 755.67 399.016C761.783 386.128 764.591 373.187 766.059 359.117C766.265 357.453 766.265 357.453 766.476 355.756C766.921 351.146 766.502 346.746 766.059 342.146C765.977 341.085 765.894 340.025 765.81 338.931C762.748 309.957 747.331 285.681 725.022 267.573C702.327 250.145 673.097 243.076 644.82 246.743C621.483 250.107 601.389 259.899 584.895 276.684C583.361 278.241 581.806 279.773 580.247 281.305C561.681 299.813 552.045 323.961 550.391 349.925C550.224 352.028 550.047 354.13 549.868 356.232C549.745 357.683 549.625 359.135 549.506 360.587C549.048 366.203 548.491 371.807 547.916 377.413C547.523 381.447 547.184 385.483 546.855 389.523C546.347 395.759 545.77 401.984 545.135 408.208C543.886 420.494 542.689 432.783 541.696 445.092C541.222 450.92 540.647 456.733 540.044 462.548C539.577 466.229 539.577 466.229 541.685 469.558C546.63 474.382 554.012 472.251 560.29 471.547Z" fill="#05192A"/>
<path d="M578.675 282.043C577.975 281.343 577.275 280.643 576.554 279.922C578.991 277.203 581.439 274.496 583.89 271.79C584.573 271.028 585.256 270.266 585.959 269.481C590.091 264.933 594.272 260.992 599.182 257.294C599.608 262.345 599.608 262.345 597.748 264.987C597.069 265.613 596.39 266.239 595.69 266.884C594.929 267.596 594.168 268.308 593.384 269.042C592.497 269.832 591.61 270.622 590.696 271.436C590.174 271.904 589.652 272.372 589.115 272.854C585.661 275.947 582.178 279.005 578.675 282.043Z" fill="#041120"/>
<path d="M744.138 461.647C743.905 461.414 743.672 461.181 743.431 460.94C746.125 458.007 748.821 455.076 751.519 452.146C752.275 451.322 753.031 450.499 753.81 449.65C757.132 446.044 760.456 442.462 763.948 439.02C766.656 436.302 768.889 433.534 771.133 430.444C771.558 430.007 771.984 429.57 772.423 429.12C773.356 429.12 774.289 429.12 775.251 429.12C771.41 435.965 766.359 441.231 760.796 446.695C759.29 448.175 757.796 449.665 756.304 451.158C748.364 459.041 748.364 459.041 744.138 461.647Z" fill="#040C18"/>
<path d="M721.511 443.263C721.277 443.03 721.044 442.796 720.804 442.556C724.324 438.728 727.858 434.915 731.408 431.114C732.612 429.82 733.813 428.521 735.01 427.219C736.732 425.347 738.468 423.489 740.208 421.633C740.739 421.048 741.27 420.464 741.817 419.863C744.167 417.381 745.754 415.814 749.112 414.96C749.804 414.966 750.496 414.972 751.209 414.979C747.211 419.011 743.209 423.039 739.202 427.063C737.839 428.434 736.477 429.805 735.116 431.179C733.164 433.148 731.208 435.112 729.25 437.076C728.639 437.694 728.027 438.313 727.397 438.95C725.933 440.415 724.432 441.843 722.925 443.263C722.458 443.263 721.991 443.263 721.511 443.263Z" fill="#020F1D"/>
<path d="M628.88 496.296C629.347 495.363 629.813 494.429 630.294 493.468C631.227 493.468 632.161 493.468 633.123 493.468C633.939 493.089 634.756 492.709 635.597 492.319C636.414 491.998 637.231 491.677 638.072 491.346C639.006 491.813 639.939 492.28 640.901 492.761C641.557 492.513 642.213 492.265 642.889 492.009C645.927 491.116 647.356 492.045 650.093 493.468C643.033 494.505 635.963 495.431 628.88 496.296Z" fill="#192B3B"/>
<path d="M771.008 276.386C771.941 275.452 772.875 274.519 773.836 273.557C773.37 272.624 772.903 271.69 772.422 270.729C776.197 275.231 779.406 279.768 782.322 284.871C782.088 285.104 781.855 285.338 781.615 285.578C777.573 282.884 774.367 279.862 771.008 276.386Z" fill="#293948"/>
<path d="M588.575 239.616C588.109 239.149 587.642 238.682 587.161 238.201C587.993 235.706 589.061 234.698 590.917 232.854C591.745 232.021 591.745 232.021 592.589 231.172C594.232 229.716 594.232 229.716 597.06 228.302C597.527 228.768 597.994 229.235 598.475 229.716C595.208 232.983 591.941 236.25 588.575 239.616Z" fill="#05101E"/>
<path d="M616.152 255.879C614.974 254.701 613.795 253.522 612.617 252.344C614.25 250.71 615.884 249.077 617.566 247.394C618.033 247.861 618.5 248.327 618.981 248.808C618.747 249.508 618.514 250.208 618.274 250.929C618.974 251.629 619.674 252.329 620.395 253.051C618.995 253.984 617.595 254.917 616.152 255.879Z" fill="#0E1F2F"/>
<path d="M684.034 463.769C683.567 462.835 683.101 461.902 682.62 460.94C683.813 458.863 683.813 458.863 685.448 456.698C687.198 456.348 687.198 456.348 688.984 455.991C689.451 456.457 689.917 456.924 690.398 457.405C688.298 459.505 686.198 461.605 684.034 463.769Z" fill="#07131F"/>
<path d="M755.452 399.422C756.226 395.551 757.721 392.913 759.695 389.523C760.628 390.923 761.561 392.323 762.523 393.765C760.19 395.632 757.856 397.499 755.452 399.422Z" fill="#182938"/>
<path d="M507.964 506.902C506.727 505.134 506.727 505.134 505.843 503.366C506.674 503.76 506.674 503.76 507.522 504.162C510.248 505.014 510.248 505.014 513.665 504.029C517.157 503.366 517.157 503.366 519.143 504.386C519.654 504.749 520.165 505.113 520.692 505.488C519.102 505.726 517.51 505.961 515.919 506.195C515.033 506.326 514.147 506.457 513.234 506.593C510.793 506.902 510.793 506.902 507.964 506.902Z" fill="#2C3B48"/>
<path d="M665.649 219.109C664.716 218.176 663.783 217.243 662.821 216.281C664.721 214.823 664.721 214.823 667.063 213.453C668.23 213.686 669.397 213.919 670.599 214.16C670.599 215.093 670.599 216.027 670.599 216.988C669.432 217.222 668.266 217.455 667.063 217.695C666.597 218.162 666.13 218.629 665.649 219.109Z" fill="#06121F"/>
<path d="M645.143 465.891C644.443 464.724 643.743 463.557 643.022 462.355C646.055 462.122 649.089 461.888 652.214 461.648C651.748 463.048 651.281 464.448 650.8 465.891C650.333 465.424 649.867 464.957 649.386 464.476C647.986 464.943 646.586 465.41 645.143 465.891Z" fill="#101E2B"/>
<path d="M652.214 246.687C654.73 244.171 655.852 244.226 659.285 243.859C659.985 243.625 660.685 243.392 661.407 243.152C663.66 244.522 663.66 244.522 665.649 245.98C664.206 246.1 662.762 246.217 661.318 246.334C660.514 246.399 659.71 246.465 658.882 246.532C656.651 246.675 654.449 246.714 652.214 246.687Z" fill="#102234"/>
<path d="M599.889 472.961C599.422 472.028 598.955 471.094 598.474 470.133C600.065 468.365 600.065 468.365 602.01 466.597C602.943 466.597 603.877 466.597 604.838 466.597C605.538 467.297 606.238 467.997 606.96 468.718C606.055 469.156 605.151 469.593 604.22 470.044C601.393 471.313 601.393 471.313 599.889 472.961Z" fill="#04121F"/>
<path d="M593.524 470.84C592.824 469.673 592.124 468.506 591.403 467.304C594.436 467.071 597.47 466.838 600.595 466.597C599.895 467.764 599.195 468.931 598.474 470.133C595.866 470.707 595.866 470.707 593.524 470.84Z" fill="#142433"/>
<path d="M644.436 214.867C644.669 214.167 644.903 213.467 645.143 212.745C653.971 210.73 653.971 210.73 658.578 213.453C657.972 213.495 657.366 213.538 656.741 213.582C652.614 213.885 648.524 214.201 644.436 214.867Z" fill="#D1D4D3"/>
<path d="M582.918 471.547C582.451 470.613 581.984 469.68 581.503 468.718C584.07 468.485 586.637 468.252 589.282 468.011C588.815 468.945 588.348 469.878 587.867 470.84C588.101 471.54 588.334 472.24 588.574 472.961C585.834 472.431 585.834 472.431 582.918 471.547Z" fill="#0F2032"/>
<path d="M780.2 288.407C777.867 285.606 775.533 282.806 773.129 279.921C777.601 281.412 779.193 282.906 782.322 286.285C781.621 286.985 780.921 287.685 780.2 288.407Z" fill="#03101D"/>
<path d="M657.872 492.761C657.405 491.827 656.938 490.894 656.457 489.932C659.258 489.932 662.058 489.932 664.943 489.932C665.409 490.866 665.876 491.799 666.357 492.761C663.557 492.761 660.757 492.761 657.872 492.761Z" fill="#132536"/>
<path d="M709.49 258.708C708.09 257.308 706.69 255.908 705.248 254.466C705.714 253.532 706.181 252.599 706.662 251.637C708.528 253.504 710.395 255.371 712.319 257.294C711.385 257.761 710.452 258.227 709.49 258.708Z" fill="#040F1D"/>
<path d="M617.566 223.353C617.333 222.653 617.099 221.953 616.859 221.231C619.819 218.976 621.601 218.046 625.344 218.403C624.239 220.48 624.239 220.48 622.516 222.645C619.864 223.264 619.864 223.264 617.566 223.353Z" fill="#132534"/>
<path d="M586.453 238.908C585.52 237.975 584.586 237.042 583.625 236.08C586.191 234.447 588.758 232.813 591.403 231.13C591.636 231.364 591.87 231.597 592.11 231.837C590.243 234.171 588.376 236.504 586.453 238.908Z" fill="#192B3C"/>
<path d="M708.076 483.567C708.309 482.867 708.543 482.167 708.783 481.446C708.316 480.979 707.85 480.513 707.369 480.032C707.836 479.565 708.302 479.099 708.783 478.618C711.381 478.791 713.975 479.024 716.561 479.325C713.761 480.725 710.961 482.125 708.076 483.567Z" fill="#273849"/>
<path d="M619.687 497.003C619.22 496.536 618.754 496.069 618.273 495.589C620.595 493.83 621.534 493.445 624.504 493.688C625.248 493.849 625.992 494.009 626.758 494.174C626.992 494.874 627.225 495.574 627.465 496.296C624.879 496.596 622.285 496.83 619.687 497.003Z" fill="#192C3E"/>
<path d="M565.24 501.953C565.94 500.786 566.64 499.619 567.361 498.417C570.322 498.196 570.322 498.196 573.018 498.417C573.485 499.351 573.951 500.284 574.432 501.246C571.399 501.479 568.365 501.713 565.24 501.953Z" fill="#233546"/>
<path d="M773.13 278.507C772.43 277.807 771.73 277.107 771.008 276.386C771.942 275.452 772.875 274.519 773.837 273.557C773.37 272.624 772.903 271.69 772.423 270.729C774.422 273.502 775.27 275.068 775.958 278.507C775.025 278.507 774.091 278.507 773.13 278.507Z" fill="#1D2F3D"/>
<path d="M678.378 217.695C677.678 216.529 676.978 215.362 676.256 214.16C679.057 214.627 681.857 215.093 684.742 215.574C681.206 217.695 681.206 217.695 678.378 217.695Z" fill="#152334"/>
<path d="M642.315 248.101C642.082 247.401 641.848 246.701 641.608 245.98C642.075 245.513 642.541 245.047 643.022 244.566C644.908 244.566 646.793 244.566 648.679 244.566C649.146 245.499 649.612 246.433 650.093 247.394C647.526 247.628 644.96 247.861 642.315 248.101Z" fill="#223647"/>
<path d="M625.345 467.305C625.344 466.371 625.344 465.438 625.345 464.476C627.678 464.476 630.011 464.476 632.416 464.476C628.526 467.305 628.526 467.305 625.345 467.305Z" fill="#112333"/>
</svg>
